<svg width="132" height="28" viewBox="0 0 132 28" fill="none" xmlns="http://www.w3.org/2000/svg">
<path d="M-3.67176e-06 24.5L11.7204 3.5L12.4799 4.87337L2.22945 23.3043L15.3523 23.3043L15.964 24.5L-3.67176e-06 24.5Z" fill="url(#paint0_linear_1701_11)"/>
<path d="M18.7355 24.5L18.0713 23.3043L22.6721 23.3043L23.3333 24.5L18.7355 24.5Z" fill="url(#paint1_linear_1701_11)"/>
<path d="M4.58511 22.129L7.02852 17.7597C7.41632 18.0901 7.67053 18.2246 8.17204 18.484L6.91756 20.726L14.0335 20.726L14.7512 22.129L4.58511 22.129Z" fill="url(#paint2_linear_1701_11)"/>
<path d="M9.33301 14.2459L12.2225 8.65355L15.1566 14.2459C12.9934 13.7509 11.3905 13.7416 9.33301 14.2459Z" fill="url(#paint3_linear_1701_11)"/>
<path d="M22.1663 22.1666L20.0475 18.3909L18.8232 19.1671L20.5487 22.1666L22.1663 22.1666Z" fill="url(#paint4_linear_1701_11)"/>
<path d="M19.5121 22.1666L17.6081 22.1666L15.6936 18.8003C16.8391 18.1114 17.4158 17.6449 17.9774 16.6511L12.8507 7.49084L13.431 6.41663L19.5781 17.4894L17.5291 18.8316L19.5121 22.1666Z" fill="url(#paint5_linear_1701_11)"/>
<circle cx="11.9583" cy="16.625" r="1.45833" fill="url(#paint6_linear_1701_11)"/>
<path d="M89 25.6604V5.24173H90.119V24.6903H132V25.7585L89 25.6604Z" fill="url(#paint7_linear_1701_11)"/>
<path d="M97.1296 22.0709V5.24173H98.2485V22.0709H97.1296Z" fill="url(#paint8_linear_1701_11)"/>
<path d="M107.394 13.5872H111.048V21.5529C109.777 22.0517 108.456 22.3011 107.086 22.3011C105.267 22.3011 103.855 21.5337 102.85 19.9989C101.845 18.4641 101.343 16.3346 101.343 13.6103C101.343 10.8783 101.86 8.76028 102.896 7.25617C103.938 5.75206 105.4 5 107.28 5C108.544 5 109.735 5.36068 110.854 6.08204L110.317 7.07199C109.267 6.39667 108.254 6.05902 107.28 6.05902C105.72 6.05902 104.536 6.70747 103.729 8.00438C102.93 9.29362 102.53 11.1699 102.53 13.6333C102.53 16.0429 102.934 17.9116 103.741 19.2392C104.555 20.5591 105.704 21.2191 107.189 21.2191C108.254 21.2191 109.164 21.0771 109.918 20.7932V14.6693H107.394V13.5872Z" fill="url(#paint9_linear_1701_11)"/>
<path d="M122.249 22.0709H121.13V13.7944H115.307V22.0709H114.188V5.24173H115.307V12.7124H121.13V5.24173H122.249V22.0709Z" fill="url(#paint10_linear_1701_11)"/>
<path d="M128.677 22.0709H127.558V6.32377H124.236V5.24173H132V6.32377H128.677V22.0709Z" fill="url(#paint11_linear_1701_11)"/>
<path d="M44.7695 5.95703L38.8633 22H37.3633L43.8086 4.9375H44.8516L44.7695 5.95703ZM50.1367 22L44.2188 5.95703L44.1367 4.9375H45.1797L51.6367 22H50.1367ZM49.082 15.9766V17.2188H40.0234V15.9766H49.082ZM61.8203 19.0703V9.32031H63.2266V22H61.8789L61.8203 19.0703ZM62.0781 16.7266L62.8047 16.7031C62.8047 17.5 62.7109 18.2344 62.5234 18.9062C62.3359 19.5781 62.043 20.1641 61.6445 20.6641C61.2461 21.1641 60.7305 21.5508 60.0977 21.8242C59.4648 22.0977 58.7031 22.2344 57.8125 22.2344C57.1953 22.2344 56.6289 22.1484 56.1133 21.9766C55.6055 21.7969 55.168 21.5156 54.8008 21.1328C54.4336 20.75 54.1484 20.2539 53.9453 19.6445C53.75 19.0352 53.6523 18.2969 53.6523 17.4297V9.32031H55.0469V17.4531C55.0469 18.1328 55.1211 18.6992 55.2695 19.1523C55.4258 19.6055 55.6367 19.9688 55.9023 20.2422C56.1758 20.5156 56.4883 20.7109 56.8398 20.8281C57.1914 20.9453 57.5703 21.0039 57.9766 21.0039C59.0078 21.0039 59.8203 20.8047 60.4141 20.4062C61.0156 20.0078 61.4414 19.4844 61.6914 18.8359C61.9492 18.1797 62.0781 17.4766 62.0781 16.7266ZM71.6875 9.32031V10.4688H65.3359V9.32031H71.6875ZM67.668 6.0625H69.0625V18.918C69.0625 19.5039 69.1406 19.9453 69.2969 20.2422C69.4531 20.5391 69.6562 20.7383 69.9062 20.8398C70.1562 20.9414 70.4258 20.9922 70.7148 20.9922C70.9258 20.9922 71.1289 20.9805 71.3242 20.957C71.5195 20.9258 71.6953 20.8945 71.8516 20.8633L71.9102 22.0469C71.7383 22.1016 71.5156 22.1445 71.2422 22.1758C70.9688 22.2148 70.6953 22.2344 70.4219 22.2344C69.8828 22.2344 69.4062 22.1367 68.9922 21.9414C68.5781 21.7383 68.2539 21.3945 68.0195 20.9102C67.7852 20.418 67.668 19.75 67.668 18.9062V6.0625ZM73.6211 15.8594V15.4727C73.6211 14.5508 73.7539 13.6992 74.0195 12.918C74.2852 12.1367 74.6641 11.4609 75.1562 10.8906C75.6562 10.3203 76.2539 9.87891 76.9492 9.56641C77.6445 9.24609 78.418 9.08594 79.2695 9.08594C80.1289 9.08594 80.9062 9.24609 81.6016 9.56641C82.2969 9.87891 82.8945 10.3203 83.3945 10.8906C83.8945 11.4609 84.2773 12.1367 84.543 12.918C84.8086 13.6992 84.9414 14.5508 84.9414 15.4727V15.8594C84.9414 16.7812 84.8086 17.6328 84.543 18.4141C84.2773 19.1875 83.8945 19.8594 83.3945 20.4297C82.9023 21 82.3086 21.4453 81.6133 21.7656C80.918 22.0781 80.1445 22.2344 79.293 22.2344C78.4336 22.2344 77.6562 22.0781 76.9609 21.7656C76.2656 21.4453 75.668 21 75.168 20.4297C74.668 19.8594 74.2852 19.1875 74.0195 18.4141C73.7539 17.6328 73.6211 16.7812 73.6211 15.8594ZM75.0156 15.4727V15.8594C75.0156 16.5547 75.1094 17.2148 75.2969 17.8398C75.4844 18.457 75.7578 19.0078 76.1172 19.4922C76.4766 19.9688 76.9219 20.3438 77.4531 20.6172C77.9844 20.8906 78.5977 21.0273 79.293 21.0273C79.9805 21.0273 80.5859 20.8906 81.1094 20.6172C81.6406 20.3438 82.0859 19.9688 82.4453 19.4922C82.8047 19.0078 83.0742 18.457 83.2539 17.8398C83.4414 17.2148 83.5352 16.5547 83.5352 15.8594V15.4727C83.5352 14.7852 83.4414 14.1328 83.2539 13.5156C83.0742 12.8984 82.8008 12.3477 82.4336 11.8633C82.0742 11.3789 81.6289 10.9961 81.0977 10.7148C80.5664 10.4336 79.957 10.293 79.2695 10.293C78.582 10.293 77.9727 10.4336 77.4414 10.7148C76.918 10.9961 76.4727 11.3789 76.1055 11.8633C75.7461 12.3477 75.4727 12.8984 75.2852 13.5156C75.1055 14.1328 75.0156 14.7852 75.0156 15.4727Z" fill="url(#paint12_linear_1701_11)"/>
<defs>
<linearGradient id="paint0_linear_1701_11" x1="11.6667" y1="3.5" x2="11.6667" y2="24.5" gradientUnits="userSpaceOnUse">
<stop stop-color="white"/>
<stop offset="1" stop-color="white" stop-opacity="0.3"/>
</linearGradient>
<linearGradient id="paint1_linear_1701_11" x1="11.6667" y1="3.5" x2="11.6667" y2="24.5" gradientUnits="userSpaceOnUse">
<stop stop-color="white"/>
<stop offset="1" stop-color="white" stop-opacity="0.3"/>
</linearGradient>
<linearGradient id="paint2_linear_1701_11" x1="11.6667" y1="3.5" x2="11.6667" y2="24.5" gradientUnits="userSpaceOnUse">
<stop stop-color="white"/>
<stop offset="1" stop-color="white" stop-opacity="0.3"/>
</linearGradient>
<linearGradient id="paint3_linear_1701_11" x1="15.6839" y1="6.41663" x2="15.6838" y2="22.1666" gradientUnits="userSpaceOnUse">
<stop stop-color="white"/>
<stop offset="1" stop-color="white" stop-opacity="0.3"/>
</linearGradient>
<linearGradient id="paint4_linear_1701_11" x1="15.6839" y1="6.41663" x2="15.6838" y2="22.1666" gradientUnits="userSpaceOnUse">
<stop stop-color="white"/>
<stop offset="1" stop-color="white" stop-opacity="0.3"/>
</linearGradient>
<linearGradient id="paint5_linear_1701_11" x1="15.6839" y1="6.41663" x2="15.6838" y2="22.1666" gradientUnits="userSpaceOnUse">
<stop stop-color="white"/>
<stop offset="1" stop-color="white" stop-opacity="0.3"/>
</linearGradient>
<linearGradient id="paint6_linear_1701_11" x1="11.9583" y1="15.1666" x2="11.9583" y2="18.0833" gradientUnits="userSpaceOnUse">
<stop stop-color="white"/>
<stop offset="1" stop-color="white" stop-opacity="0.3"/>
</linearGradient>
<linearGradient id="paint7_linear_1701_11" x1="110.5" y1="5" x2="110.5" y2="26" gradientUnits="userSpaceOnUse">
<stop stop-color="#FEFEFE"/>
<stop offset="1" stop-color="#595959"/>
</linearGradient>
<linearGradient id="paint8_linear_1701_11" x1="110.5" y1="5" x2="110.5" y2="26" gradientUnits="userSpaceOnUse">
<stop stop-color="#FEFEFE"/>
<stop offset="1" stop-color="#595959"/>
</linearGradient>
<linearGradient id="paint9_linear_1701_11" x1="110.5" y1="5" x2="110.5" y2="26" gradientUnits="userSpaceOnUse">
<stop stop-color="#FEFEFE"/>
<stop offset="1" stop-color="#595959"/>
</linearGradient>
<linearGradient id="paint10_linear_1701_11" x1="110.5" y1="5" x2="110.5" y2="26" gradientUnits="userSpaceOnUse">
<stop stop-color="#FEFEFE"/>
<stop offset="1" stop-color="#595959"/>
</linearGradient>
<linearGradient id="paint11_linear_1701_11" x1="110.5" y1="5" x2="110.5" y2="26" gradientUnits="userSpaceOnUse">
<stop stop-color="#FEFEFE"/>
<stop offset="1" stop-color="#595959"/>
</linearGradient>
<linearGradient id="paint12_linear_1701_11" x1="62" y1="0" x2="62" y2="28" gradientUnits="userSpaceOnUse">
<stop stop-color="#FEFEFE"/>
<stop offset="1" stop-color="#595959"/>
</linearGradient>
</defs>
</svg>
