<svg width="48" height="48" viewBox="0 0 48 48" fill="none" xmlns="http://www.w3.org/2000/svg">
<path d="M35.0132 8C34.7397 8.00007 34.4724 8.08173 34.2456 8.23454C34.0188 8.38736 33.8427 8.60437 33.7399 8.85782C33.6371 9.11126 33.6122 9.38962 33.6685 9.65727C33.7248 9.92491 33.8597 10.1697 34.0558 10.3603L36.2908 12.5952H35.0275C24.1646 12.5952 15.3295 21.4304 15.3295 32.2933C15.3269 32.4754 15.3606 32.6562 15.4285 32.8252C15.4964 32.9942 15.5972 33.148 15.7251 33.2777C15.8529 33.4073 16.0053 33.5103 16.1733 33.5806C16.3413 33.6509 16.5216 33.6871 16.7038 33.6871C16.8859 33.6871 17.0662 33.6509 17.2342 33.5806C17.4022 33.5103 17.5546 33.4073 17.6825 33.2777C17.8103 33.148 17.9112 32.9942 17.9791 32.8252C18.047 32.6562 18.0806 32.4754 18.0781 32.2933C18.0781 22.9157 25.65 15.3438 35.0275 15.3438H36.2908L34.0558 17.5788C33.924 17.7054 33.8187 17.8571 33.7461 18.025C33.6736 18.1928 33.6353 18.3734 33.6334 18.5562C33.6315 18.7391 33.6662 18.9204 33.7353 19.0897C33.8044 19.259 33.9066 19.4128 34.0359 19.5421C34.1652 19.6714 34.319 19.7736 34.4882 19.8427C34.6575 19.9118 34.8389 19.9464 35.0217 19.9446C35.2045 19.9427 35.3852 19.9044 35.553 19.8318C35.7208 19.7593 35.8725 19.654 35.9992 19.5221L40.462 15.0593C40.6299 14.9305 40.7659 14.7647 40.8592 14.5747C40.9525 14.3848 41.0007 14.1758 41 13.9642C40.9993 13.7525 40.9497 13.5439 40.8552 13.3546C40.7606 13.1652 40.6236 13.0003 40.4548 12.8726L35.9992 8.41694C35.8711 8.28502 35.7178 8.18015 35.5484 8.10853C35.3791 8.03691 35.1971 8.00001 35.0132 8ZM13.9552 8.01432C10.6827 8.01432 8 10.697 8 13.9695V35.0418C8 38.3144 10.6827 40.997 13.9552 40.997H35.0275C38.3001 40.997 40.9827 38.3144 40.9827 35.0418V27.7123C40.9853 27.5302 40.9516 27.3494 40.8837 27.1804C40.8158 27.0114 40.715 26.8576 40.5871 26.7279C40.4593 26.5982 40.3069 26.4953 40.1389 26.425C39.9709 26.3547 39.7906 26.3185 39.6084 26.3185C39.4263 26.3185 39.246 26.3547 39.078 26.425C38.91 26.4953 38.7576 26.5982 38.6297 26.7279C38.5019 26.8576 38.401 27.0114 38.3331 27.1804C38.2652 27.3494 38.2316 27.5302 38.2342 27.7123V35.0418C38.2342 36.8284 36.8141 38.2485 35.0275 38.2485H13.9552C12.1686 38.2485 10.7486 36.8284 10.7486 35.0418V13.9695C10.7486 12.1829 12.1686 10.7629 13.9552 10.7629H21.2847C21.4668 10.7655 21.6476 10.7318 21.8166 10.6639C21.9856 10.596 22.1394 10.4952 22.2691 10.3673C22.3988 10.2394 22.5018 10.0871 22.5721 9.91905C22.6424 9.75103 22.6786 9.57072 22.6786 9.3886C22.6786 9.20647 22.6424 9.02616 22.5721 8.85814C22.5018 8.69013 22.3988 8.53776 22.2691 8.40989C22.1394 8.28202 21.9856 8.1812 21.8166 8.11329C21.6476 8.04538 21.4668 8.01174 21.2847 8.01432H13.9552Z" fill="white"/>
</svg>
